<?xml version="1.0"?>
<svg width="60" height="60" xmlns="http://www.w3.org/2000/svg" xmlns:svg="http://www.w3.org/2000/svg">
 <!-- Created with SVG-edit - https://github.com/SVG-Edit/svgedit-->
 <defs>undefined</defs>
 <g class="layer">
  <title>Layer 1</title>
  <g clip-path="url(#clip0_34_4482)" id="svg_1">
   <path clip-rule="evenodd" d="m35.8,10.25l-26.1,0l0,11.4l26.1,0l0,-11.4zm-26.1,-2.85c-1.59,0 -2.9,1.28 -2.9,2.85l0,11.4c0,1.57 1.3,2.85 2.9,2.85l26.1,0c1.59,0 2.9,-1.28 2.9,-2.85l0,-11.4c0,-1.57 -1.3,-2.85 -2.9,-2.85l-26.1,0z" fill="#9e133c" fill-rule="evenodd" id="svg_2"/>
   <path clip-rule="evenodd" d="m9.7,30.2l0,2.85l2.9,0l0,-2.85l-2.9,0zm-0.46,-2.85c-1.35,0 -2.44,1.07 -2.44,2.39l0,3.31c0,1.57 1.3,2.85 2.9,2.85l2.9,0c1.59,0 2.9,-1.28 2.9,-2.85l0,-3.31c0,-1.33 -1.09,-2.39 -2.44,-2.39l-3.83,0l0.01,0z" fill="#9e133c" fill-rule="evenodd" id="svg_3"/>
   <path clip-rule="evenodd" d="m9.7,41.6l0,2.85l2.9,0l0,-2.85l-2.9,0zm-0.46,-2.85c-1.35,0 -2.44,1.07 -2.44,2.39l0,3.31c0,1.57 1.3,2.85 2.9,2.85l2.9,0c1.59,0 2.9,-1.28 2.9,-2.85l0,-3.31c0,-1.33 -1.09,-2.39 -2.44,-2.39l-3.83,0l0.01,0z" fill="#9e133c" fill-rule="evenodd" id="svg_4"/>
   <path clip-rule="evenodd" d="m21.3,30.2l0,2.85l2.9,0l0,-2.85l-2.9,0zm-0.46,-2.85c-1.35,0 -2.44,1.07 -2.44,2.39l0,3.31c0,1.57 1.3,2.85 2.9,2.85l2.9,0c1.59,0 2.9,-1.28 2.9,-2.85l0,-3.31c0,-1.33 -1.09,-2.39 -2.44,-2.39l-3.83,0l0.01,0z" fill="#9e133c" fill-rule="evenodd" id="svg_5"/>
   <path clip-rule="evenodd" d="m21.3,41.6l0,2.85l2.9,0l0,-2.85l-2.9,0zm-0.46,-2.85c-1.35,0 -2.44,1.07 -2.44,2.39l0,3.31c0,1.57 1.3,2.85 2.9,2.85l2.9,0c1.59,0 2.9,-1.28 2.9,-2.85l0,-3.31c0,-1.33 -1.09,-2.39 -2.44,-2.39l-3.83,0l0.01,0z" fill="#9e133c" fill-rule="evenodd" id="svg_6"/>
   <path clip-rule="evenodd" d="m6.8,4.55l31.9,0c1.59,0 2.9,1.28 2.9,2.85l0,30.67c0.9,-0.6 1.87,-1.08 2.9,-1.44l0,-29.23c0,-3.15 -2.6,-5.7 -5.8,-5.7l-31.9,0c-3.2,0 -5.8,2.55 -5.8,5.7l0,39.9c0,3.15 2.6,5.7 5.8,5.7l29.74,0c-0.32,-0.91 -0.55,-1.87 -0.67,-2.85l-29.07,0c-1.59,0 -2.9,-1.28 -2.9,-2.85l0,-39.9c0,-1.57 1.3,-2.85 2.9,-2.85z" fill="#9e133c" fill-rule="evenodd" id="svg_7"/>
   <path clip-rule="evenodd" d="m32.9,44.45l0,-14.25l2.9,0l0,14.25l-2.9,0zm5.8,-3.79l0,-10.46c0,-1.57 -1.3,-2.85 -2.9,-2.85l-2.9,0c-1.59,0 -2.9,1.28 -2.9,2.85l0,14.25c0,1.57 1.3,2.85 2.9,2.85l2.9,0c0.03,0 0.06,0 0.07,0c0.29,-2.49 1.3,-4.79 2.83,-6.64z" fill="#9e133c" fill-rule="evenodd" id="svg_8"/>
   <path clip-rule="evenodd" d="m48.85,55.85c4,0 7.25,-3.19 7.25,-7.12c0,-3.93 -3.25,-7.12 -7.25,-7.12c-4,0 -7.25,3.19 -7.25,7.12c0,3.93 3.25,7.12 7.25,7.12zm0,2.85c5.61,0 10.15,-4.46 10.15,-9.97c0,-5.51 -4.54,-9.97 -10.15,-9.97c-5.61,0 -10.15,4.46 -10.15,9.97c0,5.51 4.54,9.97 10.15,9.97z" fill="#9e133c" fill-rule="evenodd" id="svg_9"/>
   <path clip-rule="evenodd" d="m48.85,43.88c0.8,0 1.45,0.64 1.45,1.42l0,2.54l2.68,1.33c0.71,0.34 1,1.2 0.64,1.91c-0.35,0.7 -1.22,0.98 -1.94,0.63l-3.48,-1.71c-0.49,-0.23 -0.8,-0.73 -0.8,-1.27l0,-3.42c0,-0.78 0.65,-1.42 1.45,-1.42l0,-0.01z" fill="#9e133c" fill-rule="evenodd" id="svg_10"/>
   <path clip-rule="evenodd" d="m9.7,7.4c-1.59,0 -2.9,1.28 -2.9,2.85l0,39.9l29.07,0c-0.04,-0.47 -0.07,-0.94 -0.07,-1.42c0,-4.45 2.31,-8.36 5.8,-10.66l0,-30.67l-31.9,0zm2.9,22.8l-2.9,0l0,2.85l2.9,0l0,-2.85zm8.7,0l2.9,0l0,2.85l-2.9,0l0,-2.85zm2.9,11.4l-2.9,0l0,2.85l2.9,0l0,-2.85zm-14.5,0l2.9,0l0,2.85l-2.9,0l0,-2.85zm26.1,-31.35l-26.1,0l0,11.4l26.1,0l0,-11.4zm-2.9,19.95l2.9,0l0,14.25l-2.9,0l0,-14.25z" fill="#9e133c" fill-rule="evenodd" id="svg_11" opacity="0.1"/>
  </g>
 </g>
</svg>