<?xml version="1.0"?>
<svg width="63" height="63" xmlns="http://www.w3.org/2000/svg" xmlns:svg="http://www.w3.org/2000/svg">
 <defs>
  <linearGradient id="paint0_linear_145_43" x1="0.11" x2="0.89" y1="0.17" y2="0.82">
   <stop stop-color="#9e133c"/>
   <stop offset="1" stop-color="#9e133c"/>
  </linearGradient>
  <linearGradient id="paint1_linear_145_43" x1="-0.17" x2="1.16" y1="0.08" y2="1.19">
   <stop stop-color="#9e133c"/>
   <stop offset="1" stop-color="#9e133c"/>
  </linearGradient>
  <linearGradient id="paint2_linear_145_43" x1="-0.95" x2="1.94" y1="-0.93" y2="2.89">
   <stop stop-color="#9e133c"/>
   <stop offset="1" stop-color="#9e133c"/>
  </linearGradient>
 </defs>
 <g class="layer">
  <title>Layer 1</title>
  <path d="m61.92,43.99l-7.08,-7.07c8.12,-17.03 -4.36,-36.92 -23.34,-36.92c-18.95,0 -31.47,19.85 -23.34,36.92l-7.08,7.07c-1.97,1.97 -1.13,5.33 1.54,6.14l7.86,2.39l2.39,7.86c0.81,2.66 4.16,3.51 6.14,1.54l10.33,-10.33c1.42,0.12 2.85,0.12 4.32,0l10.33,10.33c1.97,1.97 5.33,1.12 6.14,-1.54l2.39,-7.86l7.86,-2.39c2.67,-0.81 3.5,-4.17 1.54,-6.14zm-45.52,15.32l-2.39,-7.86c-0.17,-0.58 -0.49,-1.11 -0.92,-1.54c-0.43,-0.43 -0.96,-0.75 -1.54,-0.92l-7.86,-2.39l6.37,-6.36c3.45,5.13 8.69,8.96 14.83,10.58l-8.49,8.49zm-3.68,-21.74c-9.27,-14.77 1.52,-33.88 18.78,-33.88c17.4,0 27.97,19.25 18.78,33.88c-8.7,13.88 -28.86,13.88 -37.56,0zm38.73,11.42c-0.58,0.17 -1.11,0.49 -1.54,0.92c-0.43,0.43 -0.75,0.96 -0.92,1.54l-2.39,7.86l-8.48,-8.49c6.13,-1.62 11.37,-5.45 14.83,-10.58l6.36,6.36l-7.86,2.39z" fill="url(#paint0_linear_145_43)" id="svg_1"/>
  <path d="m31.5,7.38c-12.35,0 -21.28,11.99 -17.65,23.85c3.09,10.12 14.05,15.5 23.85,11.99c7.14,-2.55 12.26,-9.38 12.26,-17.38c0,-10.18 -8.28,-18.46 -18.46,-18.46zm-9.95,29.35c-9.97,-9.09 -3.41,-25.66 9.95,-25.66c9.1,0 16.02,8.19 14.58,17.09c-1.81,11.53 -15.84,16.53 -24.53,8.57z" fill="url(#paint1_linear_145_43)" id="svg_2"/>
  <path d="m37.1,20.85l-8.14,6.04l-2.81,-3.01c-0.7,-0.74 -1.87,-0.78 -2.61,-0.08c-0.75,0.7 -0.78,1.87 -0.09,2.61l3.95,4.2c0.64,0.69 1.69,0.78 2.44,0.22l9.46,-7.02c0.82,-0.61 0.99,-1.76 0.38,-2.58c-0.61,-0.82 -1.76,-0.99 -2.58,-0.38z" fill="url(#paint2_linear_145_43)" id="svg_3"/>
 </g>
</svg>