<?xml version="1.0"?>
<svg width="60" height="60" xmlns="http://www.w3.org/2000/svg" xmlns:svg="http://www.w3.org/2000/svg">
 <!-- Created with SVG-edit - https://github.com/SVG-Edit/svgedit-->
 <g class="layer">
  <title>Layer 1</title>
  <path d="m49.75,46.4c-2.19,0 -4.29,-0.93 -5.83,-2.6c-1.55,-1.65 -2.42,-3.91 -2.42,-6.25l0,-23.16l2.75,2.04l0,21.12c0,1.56 0.58,3.07 1.61,4.17c1.03,1.11 2.43,1.73 3.89,1.73c1.46,0 2.86,-0.62 3.89,-1.73c1.03,-1.11 1.61,-2.61 1.61,-4.17l0,-28c0,-1.18 -0.33,-2.35 -0.95,-3.32c-0.61,-0.97 -1.49,-1.73 -2.52,-2.17c-1.02,-0.44 -2.15,-0.53 -3.22,-0.28c-1.07,0.27 -2.05,0.86 -2.81,1.73l-2.17,-1.83c1.11,-1.34 2.57,-2.3 4.19,-2.73c1.62,-0.43 3.34,-0.31 4.9,0.32c1.57,0.63 2.92,1.77 3.86,3.24c0.95,1.47 1.46,3.23 1.46,5.03l0,28c0,2.35 -0.87,4.6 -2.42,6.25c-1.54,1.67 -3.64,2.6 -5.83,2.6l0.01,0.01zm1.38,-24.32l0,9.57c0,0.4 -0.15,0.77 -0.4,1.05c-0.26,0.28 -0.61,0.43 -0.98,0.43c-0.37,0 -0.72,-0.15 -0.98,-0.43c-0.25,-0.28 -0.4,-0.65 -0.4,-1.05l0,-9.57c0,-3.53 -1.24,-6.92 -3.47,-9.5c-2.23,-2.6 -5.28,-4.19 -8.55,-4.47c-3.27,-0.27 -6.53,0.78 -9.12,2.96c-2.57,2.17 -4.29,5.31 -4.81,8.79l5.34,0c0.22,0 0.44,0.04 0.65,0.15c0.21,0.1 0.37,0.27 0.51,0.46l3.88,5.65l4.25,2.82c0.59,0.25 1.07,0.72 1.38,1.33c0.3,0.6 0.4,1.3 0.28,1.96c-0.12,0.68 -0.45,1.27 -0.95,1.71c-0.5,0.43 -1.11,0.66 -1.75,0.66c-0.28,0 -0.54,-0.04 -0.8,-0.15c-0.18,0.1 -0.37,0.15 -0.58,0.15l-1.1,0c1.5,2.45 2.35,5.28 2.46,8.2c0.11,2.92 -0.51,5.83 -1.8,8.39c-1.29,2.58 -3.22,4.72 -5.57,6.22c-2.34,1.49 -5.02,2.29 -7.74,2.29c-2.72,0 -5.4,-0.8 -7.74,-2.29c-2.35,-1.5 -4.28,-3.64 -5.57,-6.22c-1.29,-2.57 -1.91,-5.47 -1.8,-8.39c0.11,-2.92 0.96,-5.75 2.46,-8.2l-1.1,0c-0.21,0 -0.4,-0.04 -0.58,-0.15c-0.26,0.1 -0.52,0.15 -0.8,0.15c-0.63,0 -1.25,-0.24 -1.75,-0.66c-0.5,-0.44 -0.83,-1.03 -0.95,-1.71c-0.12,-0.66 -0.03,-1.36 0.28,-1.96c0.3,-0.6 0.78,-1.08 1.38,-1.33l4.17,-2.77l3.95,-5.69c0.14,-0.19 0.32,-0.35 0.52,-0.46c0.19,-0.1 0.43,-0.15 0.65,-0.15l5.51,0l0,-13.67c-0.41,-0.25 -0.77,-0.62 -1,-1.08c-0.25,-0.44 -0.37,-0.94 -0.37,-1.46c0,-0.78 0.29,-1.53 0.81,-2.08c0.51,-0.56 1.21,-0.87 1.94,-0.87c0.73,0 1.43,0.31 1.94,0.87c0.52,0.55 0.81,1.3 0.81,2.08c0,0.52 -0.12,1.02 -0.37,1.46c-0.23,0.46 -0.59,0.83 -1,1.08l0,6.36c1.9,-2.99 4.65,-5.27 7.84,-6.46c3.19,-1.21 6.66,-1.28 9.89,-0.21c3.23,1.06 6.05,3.22 8.06,6.12c2.01,2.92 3.09,6.45 3.09,10.07l-0.02,0zm-30.25,34.63c2.39,0.01 4.73,-0.72 6.74,-2.12c2.01,-1.39 3.6,-3.38 4.57,-5.72c0.98,-2.35 1.29,-4.94 0.92,-7.46c-0.39,-2.54 -1.43,-4.9 -3.04,-6.8l-7.81,0l0,8.25l2.35,2.52c0.12,0.13 0.23,0.29 0.3,0.47c0.07,0.18 0.1,0.37 0.1,0.56c0,0.19 -0.03,0.38 -0.1,0.56c-0.07,0.18 -0.17,0.34 -0.3,0.47c-0.12,0.13 -0.28,0.25 -0.44,0.32c-0.17,0.07 -0.34,0.1 -0.52,0.1c-0.18,0.01 -0.36,-0.03 -0.52,-0.1c-0.17,-0.07 -0.32,-0.18 -0.44,-0.31l-1.8,-1.93l-1.8,1.93c-0.26,0.27 -0.61,0.43 -0.96,0.41c-0.37,0 -0.72,-0.15 -0.96,-0.43c-0.26,-0.28 -0.4,-0.65 -0.4,-1.03c0,-0.4 0.14,-0.77 0.4,-1.03l2.35,-2.52l0,-8.25l-7.81,0c-1.61,1.9 -2.65,4.26 -3.04,6.8c-0.37,2.52 -0.06,5.12 0.92,7.46c0.96,2.35 2.56,4.34 4.57,5.72c2.01,1.4 4.35,2.14 6.74,2.12l-0.02,0.01zm-6.22,-33.9l-3.63,5.24l0,0.01c-0.11,0.18 -0.26,0.32 -0.43,0.44l-4.74,3.14l30.03,0l-4.43,-2.94l-14.71,0c-0.37,0 -0.72,-0.16 -0.98,-0.44c-0.25,-0.27 -0.4,-0.65 -0.4,-1.03c0,-0.4 0.15,-0.77 0.4,-1.05c0.26,-0.28 0.61,-0.43 0.98,-0.43l12.36,0l-2.04,-2.95l-12.42,0l0.01,0.01z" fill="#9e133c" id="svg_1"/>
 </g>
</svg>