<?xml version="1.0"?>
<svg width="60" height="60" xmlns="http://www.w3.org/2000/svg" xmlns:svg="http://www.w3.org/2000/svg">
 <defs>
  <clipPath id="clip0_34_4141">
   <rect fill="white" height="40" id="svg_1" width="40"/>
  </clipPath>
 </defs>
 <g class="layer">
  <title>background</title>
  <rect fill="none" height="62" id="canvas_background" width="62" x="-1" y="-1"/>
 </g>
 <g class="layer">
  <title>Layer 1</title>
  <path clip-rule="evenodd" d="m36.6,15.25l6.1,0c0.4,0 0.79,0.16 1.08,0.45c0.28,0.28 0.45,0.67 0.45,1.08c0,0.4 -0.17,0.79 -0.45,1.07c-0.29,0.29 -0.68,0.45 -1.08,0.45l-6.1,0c-0.4,0 -0.79,-0.16 -1.08,-0.45c-0.28,-0.28 -0.45,-0.67 -0.45,-1.07c0,-0.41 0.17,-0.8 0.45,-1.08c0.29,-0.29 0.68,-0.45 1.08,-0.45zm0,6.1l6.1,0c0.4,0 0.79,0.16 1.08,0.45c0.28,0.28 0.45,0.67 0.45,1.08c0,0.4 -0.17,0.79 -0.45,1.07c-0.29,0.29 -0.68,0.45 -1.08,0.45l-6.1,0c-0.4,0 -0.79,-0.16 -1.08,-0.45c-0.28,-0.28 -0.45,-0.67 -0.45,-1.07c0,-0.41 0.17,-0.8 0.45,-1.08c0.29,-0.29 0.68,-0.45 1.08,-0.45zm0,12.2l6.1,0c0.4,0 0.79,0.16 1.08,0.45c0.28,0.28 0.45,0.67 0.45,1.08c0,0.4 -0.17,0.79 -0.45,1.07c-0.29,0.29 -0.68,0.45 -1.08,0.45l-6.1,0c-0.4,0 -0.79,-0.16 -1.08,-0.45c-0.28,-0.28 -0.45,-0.67 -0.45,-1.07c0,-0.41 0.17,-0.8 0.45,-1.08c0.29,-0.29 0.68,-0.45 1.08,-0.45zm0,-6.1l6.1,0c0.4,0 0.79,0.16 1.08,0.45c0.28,0.28 0.45,0.67 0.45,1.08c0,0.4 -0.17,0.79 -0.45,1.07c-0.29,0.29 -0.68,0.45 -1.08,0.45l-6.1,0c-0.4,0 -0.79,-0.16 -1.08,-0.45c-0.28,-0.28 -0.45,-0.67 -0.45,-1.07c0,-0.41 0.17,-0.8 0.45,-1.08c0.29,-0.29 0.68,-0.45 1.08,-0.45zm22.88,-10.68l-6.1,0l0,38.89c0,1.42 -0.57,2.78 -1.57,3.78c-1,1 -2.36,1.56 -3.77,1.56c-0.26,-0.01 -0.51,-0.03 -0.76,-0.08l0,0.08l-41.18,0l0,-0.08c-0.25,0.05 -0.51,0.07 -0.76,0.08c-1.42,0 -2.78,-0.56 -3.78,-1.56c-1,-1 -1.56,-2.36 -1.56,-3.78l0,-6.86c0,-0.4 0.16,-0.79 0.45,-1.08c0.28,-0.28 0.67,-0.45 1.08,-0.45c0.4,0 0.79,0.17 1.07,0.45c0.29,0.29 0.45,0.68 0.45,1.08l0,6.86c0,0.61 0.24,1.19 0.67,1.62c0.43,0.43 1.01,0.67 1.62,0.67c0.26,-0.01 0.52,-0.06 0.76,-0.15l0,0.15l37.13,0c-0.35,-0.71 -0.53,-1.49 -0.53,-2.29l0,-5.33l-13.73,0c-0.4,0 -0.79,-0.17 -1.07,-0.45c-0.29,-0.29 -0.45,-0.68 -0.45,-1.08c0,-0.4 0.16,-0.79 0.45,-1.08c0.28,-0.28 0.67,-0.45 1.07,-0.45l16.78,0l0,8.39c0,0.61 0.24,1.19 0.67,1.62c0.43,0.43 1.01,0.67 1.62,0.67c0.6,0 1.19,-0.24 1.62,-0.67c0.42,-0.43 0.67,-1.01 0.67,-1.62l0,-50.32c0,-0.8 0.18,-1.58 0.53,-2.29l-35.61,0l0,0.15c-0.24,-0.09 -0.5,-0.14 -0.76,-0.15c-0.61,0 -1.19,0.24 -1.62,0.67c-0.43,0.43 -0.67,1.01 -0.67,1.62l0,0.76c0,0.4 -0.16,0.79 -0.45,1.08c-0.28,0.28 -0.67,0.44 -1.07,0.44c-0.41,0 -0.8,-0.16 -1.08,-0.44c-0.29,-0.29 -0.45,-0.68 -0.45,-1.08l0,-0.76c0,-1.42 0.56,-2.78 1.56,-3.78c1,-1 2.36,-1.56 3.78,-1.56c0.25,0.01 0.51,0.03 0.76,0.08l0,-0.08l39.65,0l0,0.08c0.25,-0.05 0.51,-0.07 0.76,-0.08c1.42,0 2.78,0.56 3.78,1.56c1,1 1.56,2.36 1.56,3.78l0,11.43l-1.52,0zm-1.53,-11.43c0,-0.61 -0.24,-1.19 -0.67,-1.62c-0.43,-0.43 -1.01,-0.67 -1.62,-0.67c-0.6,0 -1.19,0.24 -1.61,0.67c-0.43,0.43 -0.67,1.01 -0.67,1.62l0,6.86l0,1.52l4.57,0l0,-8.38zm-27.45,20.58c0,2.37 -0.55,4.7 -1.61,6.82c-1.06,2.11 -2.6,3.95 -4.49,5.37l0,10.69c0,0.21 -0.04,0.42 -0.12,0.61c-0.16,0.37 -0.46,0.66 -0.84,0.81c-0.37,0.15 -0.79,0.15 -1.16,-0.01l-7.01,-2.82l-7.05,2.82c-0.37,0.16 -0.79,0.16 -1.16,0.01c-0.38,-0.15 -0.68,-0.44 -0.84,-0.81c-0.08,-0.19 -0.12,-0.4 -0.12,-0.61l0,-10.69c-2.08,-1.56 -3.73,-3.63 -4.78,-6.01c-1.06,-2.37 -1.49,-4.98 -1.26,-7.57c0.24,-2.59 1.13,-5.07 2.6,-7.22c1.46,-2.15 3.45,-3.89 5.78,-5.05c2.32,-1.16 4.91,-1.71 7.51,-1.59c2.59,0.12 5.12,0.9 7.33,2.27c2.21,1.37 4.03,3.28 5.3,5.55c1.26,2.28 1.92,4.83 1.92,7.44l0,-0.01zm-21.35,20.65l5.51,-2.2c0.19,-0.08 0.4,-0.12 0.61,-0.12c0.21,0 0.42,0.04 0.62,0.12l5.46,2.2l0,-6.67c-1.92,0.84 -4,1.27 -6.1,1.27c-2.1,0 -4.18,-0.43 -6.1,-1.27l0,6.67zm-6.1,-20.65c0,2.42 0.72,4.78 2.06,6.78c1.34,2.01 3.24,3.57 5.47,4.5c2.23,0.92 4.68,1.16 7.05,0.69c2.37,-0.47 4.54,-1.63 6.25,-3.34c1.7,-1.7 2.86,-3.88 3.34,-6.24c0.47,-2.37 0.22,-4.82 -0.7,-7.05c-0.92,-2.23 -2.49,-4.14 -4.49,-5.48c-2.01,-1.34 -4.37,-2.06 -6.78,-2.06c-3.24,0 -6.34,1.29 -8.63,3.58c-2.28,2.29 -3.57,5.39 -3.57,8.63l0,-0.01zm21.35,0c0,1.81 -0.54,3.58 -1.54,5.09c-1.01,1.5 -2.44,2.68 -4.11,3.37c-1.67,0.69 -3.51,0.87 -5.29,0.52c-1.77,-0.35 -3.4,-1.23 -4.68,-2.51c-1.28,-1.27 -2.15,-2.91 -2.5,-4.68c-0.36,-1.77 -0.18,-3.61 0.52,-5.29c0.69,-1.67 1.86,-3.1 3.37,-4.1c1.5,-1.01 3.27,-1.55 5.08,-1.55c2.43,0 4.75,0.97 6.47,2.69c1.72,1.71 2.68,4.04 2.68,6.46zm-15.25,0c0,1.21 0.36,2.39 1.03,3.39c0.67,1.01 1.62,1.79 2.74,2.25c1.11,0.46 2.34,0.58 3.52,0.35c1.18,-0.24 2.27,-0.82 3.12,-1.67c0.86,-0.85 1.44,-1.94 1.67,-3.12c0.24,-1.19 0.12,-2.41 -0.34,-3.53c-0.47,-1.11 -1.25,-2.07 -2.25,-2.74c-1,-0.67 -2.18,-1.03 -3.39,-1.03c-1.62,0 -3.17,0.65 -4.31,1.79c-1.15,1.15 -1.79,2.7 -1.79,4.31z" fill="#9e133c" fill-rule="evenodd" id="svg_3"/>
  <path clip-rule="evenodd" d="m45.72,63.38l-2.95,0l0,-11.38l-4.42,0l0,-43.87c0,-1.3 0.47,-2.54 1.3,-3.45c0.83,-0.92 1.95,-1.43 3.12,-1.43l7.38,0l0,55.25c0,1.29 -0.47,2.53 -1.3,3.45c-0.83,0.91 -1.95,1.43 -3.13,1.43zm-28.76,-27.63c-1.02,0 -2.02,-0.33 -2.87,-0.96c-0.84,-0.62 -1.51,-1.51 -1.9,-2.55c-0.39,-1.04 -0.49,-2.18 -0.29,-3.29c0.2,-1.1 0.69,-2.11 1.41,-2.91c0.72,-0.79 1.64,-1.34 2.65,-1.56c1,-0.22 2.03,-0.1 2.98,0.33c0.94,0.43 1.75,1.16 2.32,2.09c0.56,0.94 0.87,2.04 0.87,3.16c0,1.51 -0.55,2.96 -1.52,4.02c-0.97,1.07 -2.28,1.67 -3.65,1.67zm21.39,24.38l1.47,1.62l-36.87,1.63l-1.48,-1.63l0,-4.87l36.88,0l0,3.25z" fill="#9e133c" fill-rule="evenodd" id="svg_4" opacity="0.1"/>
 </g>
</svg>