<?xml version="1.0"?>
<svg width="65" height="63" xmlns="http://www.w3.org/2000/svg" xmlns:svg="http://www.w3.org/2000/svg">
 <defs>
  <linearGradient id="paint0_linear_145_44" x1="0.11" x2="0.87" y1="0.17" y2="0.84">
   <stop stop-color="#9e133c"/>
   <stop offset="1" stop-color="#9e133c"/>
  </linearGradient>
  <linearGradient id="paint1_linear_145_44" x1="-0.28" x2="1.17" y1="-0.08" y2="1.23">
   <stop stop-color="#9e133c"/>
   <stop offset="1" stop-color="#9e133c"/>
  </linearGradient>
 </defs>
 <g class="layer">
  <title>Layer 1</title>
  <path d="m61.48,25.61c-5.38,-3.6 0.39,-8.92 -2.62,-13.37c-2.06,-3.06 -7.21,-2.02 -9.92,-3.53c-2.2,-2.12 -2.85,-7.39 -6.37,-8.42c-3.41,-1.28 -6.96,2.66 -10.02,2.97c-3.06,-0.3 -6.61,-4.26 -10.05,-3.02c-3.52,1.02 -4.13,6.28 -6.37,8.41c-2.68,1.53 -7.83,0.48 -9.92,3.53c-2.21,2.91 0.35,7.54 -0.28,10.58c-1.32,2.8 -6.06,5.02 -5.93,8.74c-0.12,3.72 4.6,5.94 5.93,8.73c0.63,3.04 -1.95,7.68 0.28,10.59c2.06,3.05 7.21,2.01 9.92,3.53c4,5.34 4.04,11.88 12.78,6.84c2.87,-1.82 4.41,-1.81 7.28,0c5.07,3.23 8.59,1.94 10.8,-3.65c1.8,-6.39 8.44,-2.37 11.87,-6.68c2.2,-2.91 -0.35,-7.54 0.27,-10.58c0.58,-1.1 1.38,-2.07 2.35,-2.84c4.68,-3.96 4.71,-7.91 0,-11.83zm-2.27,9.35c-8.76,6.79 2.98,14.55 -7.01,15.13c-8.43,0.58 -6.36,5.67 -10.62,9.49c-2.58,0.2 -6.12,-3.42 -9.03,-3.18c-2.91,-0.24 -6.46,3.34 -9.03,3.18c-2.27,-1.3 -2.98,-6.39 -5.45,-7.93c-2.21,-1.9 -7.22,-1.05 -9.15,-2.79c-1.1,-5.58 3.31,-8.59 -3.03,-13.9c-7.92,-6.58 6.31,-5.87 3.1,-16.65c-0.29,-1.61 -0.61,-3.41 -0.07,-4.17c4.93,-2.86 9.07,0.6 12.12,-7.25c0.83,-1.63 1.48,-3.45 2.79,-3.53c5.62,1.59 7.62,5.49 13.93,1.4c1.39,-0.76 2.97,-1.61 3.82,-1.34c2.27,1.31 2.98,6.4 5.51,7.94c2.2,1.9 7.22,1.04 9.15,2.79c0.54,0.76 0.22,2.57 -0.07,4.17c-3.27,10.78 10.96,10.06 3.04,16.64z" fill="url(#paint0_linear_145_44)" id="svg_1"/>
  <path d="m45.7,23.3l-2.61,0c1.01,-1.77 1.56,-3.77 1.58,-5.82c0.26,-4.17 -5.77,-6.39 -7.82,-2.45c-2.04,3.86 -5.05,7.11 -8.71,9.44c-0.1,-0.34 -0.31,-0.63 -0.59,-0.84c-0.28,-0.21 -0.62,-0.33 -0.97,-0.33l-8.36,0c-0.44,0 -0.86,0.18 -1.17,0.49c-0.31,0.31 -0.48,0.74 -0.48,1.18l0,18.94c0,0.44 0.17,0.87 0.48,1.18c0.31,0.31 0.73,0.49 1.17,0.49l4.74,0c1.01,0.04 2,-0.22 2.87,-0.74c0.86,-0.52 1.55,-1.29 1.99,-2.2c5.04,1.3 10.23,1.96 15.43,1.96c1.16,0.01 2.29,-0.39 3.19,-1.12c0.91,-0.73 1.54,-1.76 1.78,-2.9l2.42,-10.96c0.16,-0.76 0.16,-1.54 -0.01,-2.29c-0.17,-0.75 -0.5,-1.45 -0.98,-2.06c-0.47,-0.6 -1.07,-1.09 -1.75,-1.44c-0.69,-0.34 -1.44,-0.52 -2.2,-0.53zm-22.74,18.94l-3.14,0l0,-15.6l5.13,0l0,13.89c-0.01,0.25 -0.07,0.49 -0.18,0.72c-0.11,0.22 -0.26,0.42 -0.45,0.58c-0.18,0.16 -0.4,0.28 -0.63,0.35c-0.24,0.07 -0.49,0.09 -0.73,0.06zm24.48,-13.37l-2.41,10.96c-0.09,0.4 -0.31,0.76 -0.63,1.01c-0.32,0.26 -0.71,0.4 -1.11,0.4c-5.08,0 -10.13,-0.65 -15.04,-1.94l0,-11c4.87,-2.67 8.85,-6.73 11.45,-11.67c0.27,-0.75 1.71,-0.07 1.62,0.74c-0.06,2.12 -0.76,4.73 -2.53,5.73c-0.37,0.16 -0.67,0.44 -0.87,0.79c-0.2,0.35 -0.28,0.76 -0.23,1.16c0.01,0.43 0.2,0.84 0.5,1.13c0.31,0.3 0.72,0.46 1.15,0.46l6.39,0c0.27,0.01 0.52,0.08 0.76,0.2c0.23,0.12 0.44,0.29 0.6,0.5c0.16,0.21 0.28,0.45 0.34,0.71c0.06,0.26 0.06,0.53 0.01,0.79l0,0.03z" fill="url(#paint1_linear_145_44)" id="svg_2"/>
 </g>
</svg>