<?xml version="1.0"?>
<svg width="70" height="54" xmlns="http://www.w3.org/2000/svg" xmlns:svg="http://www.w3.org/2000/svg">
 <defs>
  <linearGradient id="paint0_linear_145_42" x1="0.11" x2="0.72" y1="0.17" y2="1.02">
   <stop stop-color="#9e133c"/>
   <stop offset="1" stop-color="#9e133c"/>
  </linearGradient>
 </defs>
 <g class="layer">
  <title>Layer 1</title>
  <path d="m62.69,30.31l-4.56,-1.09l0,-1.6c2.52,-1.49 4.21,-4.23 4.21,-7.36l0,-6.05c0,-4.72 -3.83,-8.55 -8.55,-8.55l-0.94,0c-2.52,0 -4.79,1.09 -6.35,2.83c-1.52,-4.91 -6.1,-8.49 -11.5,-8.49c-5.4,0 -9.98,3.58 -11.5,8.49c-1.56,-1.74 -3.83,-2.83 -6.35,-2.83l-0.94,0c-4.72,0 -8.55,3.83 -8.55,8.55l0,6.05c0,3.13 1.69,5.87 4.21,7.36l0,1.6l-4.56,1.09c-4.3,1.03 -7.31,4.84 -7.31,9.27l0,4.11c0,0.76 0.61,1.37 1.37,1.37l11.04,0c-0.07,0.54 -0.11,1.09 -0.11,1.64l0,4.37l-8.2,0c-0.75,0 -1.37,0.62 -1.37,1.37c0,0.76 0.62,1.37 1.37,1.37l61.8,0c0.75,0 1.37,-0.61 1.37,-1.37c0,-0.75 -0.62,-1.37 -1.37,-1.37l-8.2,0l0,-4.36c0,-0.56 -0.04,-1.11 -0.11,-1.65l11.04,0c0.76,0 1.37,-0.61 1.37,-1.37l0,-4.11c0,-4.43 -3.01,-8.24 -7.31,-9.27zm-15.66,-16.1c0,-3.21 2.61,-5.82 5.82,-5.82l0.94,0c3.21,0 5.82,2.61 5.82,5.82l0,0.35c-1.97,-0.03 -3.89,-0.61 -5.54,-1.69c-0.22,-0.15 -0.48,-0.22 -0.75,-0.22c-0.27,0 -0.53,0.07 -0.75,0.22c-1.65,1.08 -3.57,1.66 -5.54,1.69l0,-0.35l0,0zm0,4.93l0,-1.85c2.21,-0.02 4.37,-0.6 6.29,-1.68c1.92,1.08 4.08,1.66 6.29,1.68l0,2.97c0,3.2 -2.61,5.81 -5.82,5.81l-0.94,0c-3.21,0 -5.82,-2.61 -5.82,-5.81l0,-1.12l0,0zm2.62,15.74c-0.56,-0.22 -1.14,-0.41 -1.72,-0.55l-4.35,-1.04c0.33,-0.13 0.66,-0.24 1,-0.32l4.32,-1.03l0.75,2.94zm-1.13,-7.25l0,1.58l-4.58,1.1c-0.98,0.24 -1.92,0.63 -2.78,1.16l0,-2c1.88,-1.12 3.42,-2.74 4.45,-4.67c0.73,1.16 1.73,2.13 2.91,2.83zm-4.22,-8.49c0,5.13 -4.17,9.3 -9.3,9.3c-5.13,0 -9.3,-4.17 -9.3,-9.3l0,-4l1.51,0c3.83,0 7.49,-1.23 10.5,-3.45l0.31,0.46c0.61,0.92 1.44,1.68 2.42,2.2c0.97,0.52 2.06,0.79 3.16,0.79l0.7,0l0,4zm-18.6,-7.11c0,-5.13 4.17,-9.3 9.3,-9.3c5.13,0 9.3,4.17 9.3,9.3l0,0.37l-0.7,0c-0.65,0 -1.3,-0.16 -1.87,-0.47c-0.58,-0.31 -1.07,-0.75 -1.44,-1.3l-0.5,-0.75c0.41,-0.42 0.8,-0.86 1.17,-1.31c0.48,-0.59 0.39,-1.45 -0.2,-1.93c-0.59,-0.47 -1.45,-0.38 -1.92,0.21c-2.86,3.53 -7.1,5.55 -11.63,5.55l-1.51,0l0,-0.37zm-1.31,12.77c1.04,1.94 2.58,3.55 4.46,4.68l0,2c-0.86,-0.54 -1.8,-0.93 -2.79,-1.17l-4.58,-1.1l0,-1.58c1.18,-0.7 2.18,-1.67 2.91,-2.83zm2.01,8.49l-4.34,1.04c-0.58,0.14 -1.15,0.32 -1.71,0.54l0.75,-2.93l4.32,1.03c0.34,0.08 0.67,0.19 0.98,0.32zm-16.01,-19.08c0,-3.21 2.61,-5.82 5.82,-5.82l0.94,0c3.21,0 5.82,2.61 5.82,5.82l0,0.35c-1.97,-0.03 -3.89,-0.61 -5.54,-1.69c-0.22,-0.15 -0.48,-0.22 -0.75,-0.22c-0.27,0 -0.53,0.07 -0.75,0.22c-1.65,1.08 -3.57,1.66 -5.54,1.69l0,-0.35zm0,6.05l0,-2.97c2.21,-0.02 4.37,-0.6 6.29,-1.68c1.92,1.08 4.08,1.66 6.29,1.68l0,2.97c0,3.2 -2.61,5.81 -5.82,5.81l-0.94,0c-3.21,0 -5.82,-2.61 -5.82,-5.81zm2.69,22.06l-10.35,0l0,-2.74c0,-3.16 2.15,-5.87 5.21,-6.61l4.31,-1.02l2.03,7.92c-0.49,0.77 -0.89,1.6 -1.2,2.45zm1.53,-13.67c0.52,0.11 1.06,0.16 1.6,0.16l0.94,0c0.55,0 1.08,-0.06 1.59,-0.15l0,1.46l-1.71,6.68c-0.2,0.16 -0.4,0.32 -0.59,0.5l-1.83,-7.17l0,-1.48zm0.43,22.42l0,-4.37c0,-3.31 1.61,-6.3 4.17,-8.13l12.51,12.5l-16.68,0zm6.73,-13.81c0.31,-0.11 0.62,-0.2 0.93,-0.27l6.53,-1.57l3.21,12.51l-10.67,-10.67zm9.82,-3.65l0,-2.93c1.11,0.33 2.25,0.49 3.41,0.49c1.19,0 2.34,-0.17 3.42,-0.5l0,2.95l-3.41,13.32l-3.42,-13.33zm9.19,1.83l6.51,1.55c0.33,0.08 0.65,0.17 0.96,0.28l-10.68,10.68l3.21,-12.51zm14.18,15.63l-16.64,0l12.48,-12.48c2.56,1.83 4.16,4.81 4.16,8.12l0,4.36zm0.43,-20.94l-1.84,7.17c-0.18,-0.17 -0.38,-0.34 -0.58,-0.49l-1.71,-6.69l0,-1.46c0.52,0.1 1.05,0.15 1.59,0.15l0.94,0c0.55,0 1.09,-0.06 1.6,-0.16l0,1.48zm11.88,12.19l-10.35,0c-0.31,-0.85 -0.71,-1.67 -1.2,-2.44l2.03,-7.93l4.31,1.02c3.06,0.74 5.21,3.45 5.21,6.61l0,2.74l0,0z" fill="url(#paint0_linear_145_42)" id="svg_1"/>
 </g>
</svg>