<?xml version="1.0"?>
<svg width="28" height="40" xmlns="http://www.w3.org/2000/svg" xmlns:svg="http://www.w3.org/2000/svg">
 <g class="layer">
  <title>Layer 1</title>
  <path d="m10.91,14c0,-1.71 1.38,-3.09 3.09,-3.09c1.71,0 3.09,1.38 3.09,3.09c0,1.71 -1.38,3.09 -3.09,3.09c-1.71,0 -3.09,-1.38 -3.09,-3.09z" fill="#9e133c" id="svg_1"/>
  <path clip-rule="evenodd" d="m0,14c0,-7.74 6.26,-14 14,-14c7.74,0 14,6.26 14,14c0,10.5 -14,26 -14,26c0,0 -14,-15.5 -14,-26zm15,-9c0,-0.55 -0.45,-1 -1,-1c-0.55,0 -1,0.45 -1,1l0,1.64c0,0.55 0.45,1 1,1c0.55,0 1,-0.45 1,-1l0,-1.64zm-6.66,1.93c-0.39,-0.39 -1.02,-0.39 -1.41,0c-0.39,0.39 -0.39,1.02 0,1.41l1.16,1.16c0.39,0.39 1.02,0.39 1.41,0c0.39,-0.39 0.39,-1.02 0,-1.41l-1.16,-1.16zm12.73,1.41c0.39,-0.39 0.39,-1.02 0,-1.41c-0.39,-0.39 -1.02,-0.39 -1.41,0l-1.16,1.16c-0.39,0.39 -0.39,1.02 0,1.41c0.39,0.39 1.02,0.39 1.41,0l1.16,-1.16zm-7.07,0.57c-2.81,0 -5.09,2.28 -5.09,5.09c0,2.81 2.28,5.09 5.09,5.09c2.81,0 5.09,-2.28 5.09,-5.09c0,-2.81 -2.28,-5.09 -5.09,-5.09zm-9,4.09c-0.55,0 -1,0.45 -1,1c0,0.55 0.45,1 1,1l1.64,0c0.55,0 1,-0.45 1,-1c0,-0.55 -0.45,-1 -1,-1l-1.64,0zm16.36,0c-0.55,0 -1,0.45 -1,1c0,0.55 0.45,1 1,1l1.64,0c0.55,0 1,-0.45 1,-1c0,-0.55 -0.45,-1 -1,-1l-1.64,0zm-11.86,6.91c0.39,-0.39 0.39,-1.02 0,-1.41c-0.39,-0.39 -1.02,-0.39 -1.41,0l-1.16,1.16c-0.39,0.39 -0.39,1.02 0,1.41c0.39,0.39 1.02,0.39 1.41,0l1.16,-1.16zm10.41,-1.41c-0.39,-0.39 -1.02,-0.39 -1.41,0c-0.39,0.39 -0.39,1.02 0,1.41l1.16,1.16c0.39,0.39 1.02,0.39 1.41,0c0.39,-0.39 0.39,-1.02 0,-1.41l-1.16,-1.16zm-4.91,2.86c0,-0.55 -0.45,-1 -1,-1c-0.55,0 -1,0.45 -1,1l0,1.64c0,0.55 0.45,1 1,1c0.55,0 1,-0.45 1,-1l0,-1.64z" fill="#9e133c" fill-rule="evenodd" id="svg_2"/>
 </g>
</svg>